<svg width="130" height="32" viewBox="0 0 130 32" fill="none" xmlns="http://www.w3.org/2000/svg">
<path d="M20.9077 1.75819V25.3066H16.0784L6.70733 11.7157H6.55786V25.3066H0.866216V1.75819H5.76448L15.0321 15.3261H15.2275V1.75819H20.9077ZM35.8813 17.6833V7.6453H41.4925V25.3066H36.1343V22.0181H35.9503C35.5594 23.099 34.8925 23.9575 33.9496 24.5937C33.0144 25.2223 31.8837 25.5366 30.5576 25.5366C29.3541 25.5366 28.2963 25.2606 27.3841 24.7087C26.4719 24.1568 25.7628 23.3864 25.2569 22.3976C24.751 21.4011 24.4942 20.2359 24.4865 18.9021V7.6453H30.1092V17.7983C30.1168 18.7565 30.3698 19.5115 30.8681 20.0634C31.3663 20.6153 32.0447 20.8913 32.9033 20.8913C33.4628 20.8913 33.9649 20.7687 34.4095 20.5234C34.8618 20.2704 35.2182 19.9063 35.4789 19.431C35.7472 18.9481 35.8813 18.3655 35.8813 17.6833ZM45.0713 7.6453H50.6939V26.0425C50.6939 27.499 50.395 28.6565 49.7971 29.515C49.2068 30.3735 48.3713 30.9906 47.2905 31.3662C46.2096 31.7418 44.9333 31.9296 43.4615 31.9296C43.2622 31.9296 43.0744 31.9258 42.8981 31.9181C42.7218 31.9105 42.5302 31.9028 42.3232 31.8951V27.6293C42.4612 27.6446 42.5838 27.6561 42.6912 27.6638C42.7985 27.6715 42.9058 27.6753 43.0131 27.6753C43.7873 27.6753 44.3239 27.5296 44.6229 27.2383C44.9218 26.9547 45.0713 26.5178 45.0713 25.9275V7.6453ZM47.8769 5.58712C47.0873 5.58712 46.4089 5.32649 45.8417 4.80523C45.2744 4.27631 44.9908 3.64007 44.9908 2.89652C44.9908 2.16063 45.2744 1.53206 45.8417 1.0108C46.4089 0.481884 47.0873 0.217424 47.8769 0.217424C48.6741 0.217424 49.3525 0.481884 49.9121 1.0108C50.4793 1.53206 50.7629 2.16063 50.7629 2.89652C50.7629 3.64007 50.4793 4.27631 49.9121 4.80523C49.3525 5.32649 48.6741 5.58712 47.8769 5.58712ZM59.2515 25.6056C58.1247 25.6056 57.1244 25.4178 56.2505 25.0422C55.3843 24.6589 54.6982 24.084 54.1923 23.3174C53.694 22.5432 53.4449 21.5735 53.4449 20.4084C53.4449 19.4272 53.6174 18.5993 53.9623 17.9248C54.3073 17.2502 54.7825 16.7021 55.3881 16.2805C55.9937 15.8589 56.6913 15.5408 57.4808 15.3261C58.2703 15.1038 59.1136 14.9544 60.0104 14.8777C61.0146 14.7857 61.8233 14.6899 62.4366 14.5903C63.0498 14.4829 63.4944 14.3335 63.7704 14.1418C64.054 13.9425 64.1958 13.6627 64.1958 13.3025V13.245C64.1958 12.6547 63.9927 12.1986 63.5864 11.8767C63.1801 11.5547 62.632 11.3937 61.9421 11.3937C61.1986 11.3937 60.6007 11.5547 60.1484 11.8767C59.6961 12.1986 59.4087 12.6432 59.286 13.2105L54.1003 13.0265C54.2536 11.9533 54.6484 10.9951 55.2846 10.1519C55.9285 9.30105 56.8101 8.63416 57.9292 8.15123C59.0561 7.66064 60.409 7.41534 61.9881 7.41534C63.115 7.41534 64.1536 7.54949 65.1042 7.81778C66.0547 8.07841 66.8826 8.46168 67.5878 8.9676C68.293 9.46586 68.8373 10.0791 69.2205 10.8073C69.6115 11.5356 69.8069 12.3673 69.8069 13.3025V25.3066H64.5177V22.846H64.3798C64.0655 23.4439 63.663 23.9498 63.1724 24.3638C62.6895 24.7777 62.1184 25.0882 61.4592 25.2951C60.8076 25.5021 60.0717 25.6056 59.2515 25.6056ZM60.9878 21.9262C61.5933 21.9262 62.1376 21.8035 62.6205 21.5582C63.1111 21.3129 63.5021 20.9756 63.7934 20.5464C64.0846 20.1094 64.2303 19.6035 64.2303 19.0286V17.3498C64.0693 17.4342 63.8738 17.5108 63.6439 17.5798C63.4216 17.6488 63.1763 17.714 62.908 17.7753C62.6397 17.8366 62.3637 17.8903 62.0801 17.9363C61.7965 17.9822 61.5244 18.0244 61.2637 18.0627C60.7348 18.1471 60.2825 18.2774 59.9069 18.4537C59.539 18.63 59.2554 18.8599 59.0561 19.1436C58.8644 19.4195 58.7686 19.7491 58.7686 20.1324C58.7686 20.715 58.9756 21.1596 59.3895 21.4662C59.8111 21.7728 60.3439 21.9262 60.9878 21.9262ZM73.2449 25.3066V1.75819H78.8676V10.6693H78.9826C79.2125 10.1328 79.5383 9.61534 79.9599 9.11708C80.3892 8.61882 80.9334 8.21255 81.5927 7.89827C82.2596 7.57631 83.0568 7.41534 83.9843 7.41534C85.2108 7.41534 86.3568 7.73729 87.4223 8.38119C88.4955 9.0251 89.3617 10.0178 90.0209 11.3592C90.6801 12.7007 91.0097 14.4101 91.0097 16.4875C91.0097 18.4882 90.6916 20.1631 90.0554 21.5122C89.4268 22.8613 88.5759 23.8732 87.5028 24.5478C86.4373 25.2223 85.2529 25.5596 83.9498 25.5596C83.0606 25.5596 82.2902 25.414 81.6387 25.1227C80.9871 24.8314 80.439 24.4481 79.9944 23.9728C79.5575 23.4976 79.2202 22.9878 78.9826 22.4436H78.8101V25.3066H73.2449ZM78.7526 16.476C78.7526 17.4265 78.8791 18.2544 79.132 18.9596C79.3927 19.6648 79.7644 20.2129 80.2474 20.6038C80.738 20.9871 81.3244 21.1788 82.0066 21.1788C82.6965 21.1788 83.2829 20.9871 83.7658 20.6038C84.2488 20.2129 84.6129 19.6648 84.8582 18.9596C85.1111 18.2544 85.2376 17.4265 85.2376 16.476C85.2376 15.5254 85.1111 14.7014 84.8582 14.0038C84.6129 13.3063 84.2488 12.7659 83.7658 12.3826C83.2906 11.9993 82.7042 11.8077 82.0066 11.8077C81.3167 11.8077 80.7303 11.9955 80.2474 12.3711C79.7644 12.7467 79.3927 13.2833 79.132 13.9808C78.8791 14.6784 78.7526 15.5101 78.7526 16.476ZM102.212 25.6401C100.365 25.6401 98.7701 25.276 97.4287 24.5478C96.0949 23.8119 95.0677 22.7655 94.3471 21.4087C93.6342 20.0443 93.2778 18.423 93.2778 16.545C93.2778 14.7206 93.6381 13.1261 94.3586 11.7617C95.0792 10.3896 96.0949 9.32405 97.4057 8.56516C98.7165 7.79861 100.261 7.41534 102.039 7.41534C103.297 7.41534 104.446 7.61081 105.489 8.00175C106.531 8.39269 107.432 8.97144 108.191 9.73799C108.95 10.5045 109.54 11.4512 109.962 12.5781C110.383 13.6972 110.594 14.9812 110.594 16.43V17.8328H95.244V14.5673H105.362C105.355 13.9694 105.213 13.4366 104.937 12.969C104.661 12.5014 104.282 12.1373 103.799 11.8767C103.323 11.6084 102.775 11.4742 102.154 11.4742C101.526 11.4742 100.962 11.616 100.464 11.8997C99.9659 12.1756 99.5712 12.5551 99.2799 13.038C98.9886 13.5133 98.8353 14.0537 98.8199 14.6592V17.9822C98.8199 18.7028 98.9618 19.3352 99.2454 19.8795C99.529 20.416 99.9314 20.8338 100.453 21.1328C100.974 21.4317 101.595 21.5812 102.315 21.5812C102.814 21.5812 103.266 21.5122 103.672 21.3742C104.078 21.2363 104.427 21.0331 104.719 20.7648C105.01 20.4965 105.228 20.1669 105.374 19.776L110.537 19.9255C110.322 21.0829 109.851 22.091 109.122 22.9495C108.402 23.8004 107.455 24.4634 106.282 24.9387C105.109 25.4063 103.753 25.6401 102.212 25.6401ZM128.885 13.038L123.722 13.176C123.669 12.808 123.523 12.4822 123.285 12.1986C123.048 11.9073 122.737 11.6812 122.354 11.5202C121.978 11.3516 121.541 11.2673 121.043 11.2673C120.392 11.2673 119.836 11.3976 119.376 11.6582C118.924 11.9188 118.701 12.2714 118.709 12.716C118.701 13.061 118.839 13.3599 119.123 13.6129C119.414 13.8659 119.932 14.069 120.675 14.2223L124.079 14.8662C125.842 15.2035 127.153 15.7631 128.011 16.545C128.877 17.3268 129.314 18.3617 129.322 19.6495C129.314 20.8606 128.954 21.9147 128.241 22.8115C127.536 23.7084 126.57 24.4059 125.344 24.9042C124.117 25.3948 122.714 25.6401 121.135 25.6401C118.613 25.6401 116.624 25.1227 115.168 24.0878C113.719 23.0453 112.891 21.6502 112.684 19.9025L118.238 19.7645C118.36 20.4084 118.678 20.899 119.192 21.2363C119.706 21.5735 120.361 21.7422 121.158 21.7422C121.879 21.7422 122.465 21.608 122.917 21.3397C123.37 21.0714 123.6 20.715 123.607 20.2704C123.6 19.8718 123.423 19.5537 123.078 19.316C122.733 19.0707 122.193 18.8791 121.457 18.7411L118.376 18.1547C116.605 17.8328 115.286 17.2387 114.42 16.3725C113.554 15.4986 113.125 14.3871 113.132 13.038C113.125 11.8575 113.439 10.8495 114.075 10.0139C114.712 9.17074 115.616 8.52684 116.789 8.08224C117.962 7.63764 119.345 7.41534 120.94 7.41534C123.331 7.41534 125.217 7.91743 126.597 8.92161C127.977 9.91813 128.739 11.2903 128.885 13.038Z" fill="black"/>
</svg>
